dataset
version=1
nRows=16
nColumns=39
inDegrees=no
endheader
time	sternoclavicular_r2	sternoclavicular_r3	unrotscap_r3	unrotscap_r2	acromioclavicular_r2	acromioclavicular_r3	acromioclavicular_r1	unrothum_r1	unrothum_r3	unrothum_r2	elv_angle	shoulder_elv	shoulder1_r2	shoulder_rot	elbow_flexion	pro_sup	deviation	flexion	cmc_abduction	cmc_flexion	mp_flexion	ip_flexion	mcp2_flexion	mcp2_abduction	pm2_flexion	md2_flexion	mcp3_flexion	mcp3_abduction	pm3_flexion	md3_flexion	mcp4_flexion	mcp4_abduction	pm4_flexion	md4_flexion	mcp5_flexion	mcp5_abduction	pm5_flexion	md5_flexion
0.000000	-0.013492	-0.289012	0.141731	0.031923	0.009951	0.101468	-0.099392	-0.091956	0.001330	0.073025	0.036706	0.027437	0.146525	0.146525	0.862185	0.923442	0.000000	0.000000	0.000000	0.000000	0.000000	0.000000	0.000000	0.000000	0.000000	0.000000	0.000000	0.000000	0.000000	0.000000	0.000000	0.000000	0.000000	0.000000	0.000000	0.000000	0.000000	0.000000
0.005000	-0.013488	-0.289025	0.141754	0.031889	0.009918	0.101468	-0.099420	-0.091917	0.001233	0.072991	0.036651	0.027437	0.146525	0.146525	0.862575	0.926852	0.000000	0.000000	0.000000	0.000000	0.000000	0.000000	0.000000	0.000000	0.000000	0.000000	0.000000	0.000000	0.000000	0.000000	0.000000	0.000000	0.000000	0.000000	0.000000	0.000000	0.000000	0.000000
0.010000	-0.013483	-0.289036	0.141769	0.031857	0.009885	0.101465	-0.099441	-0.091884	0.001151	0.072959	0.036602	0.027437	0.146525	0.146525	0.862952	0.930234	0.000000	0.000000	0.000000	0.000000	0.000000	0.000000	0.000000	0.000000	0.000000	0.000000	0.000000	0.000000	0.000000	0.000000	0.000000	0.000000	0.000000	0.000000	0.000000	0.000000	0.000000	0.000000
0.015000	-0.013479	-0.289046	0.141778	0.031827	0.009855	0.101461	-0.099455	-0.091853	0.001077	0.072929	0.036557	0.027437	0.146525	0.146525	0.863314	0.933588	0.000000	0.000000	0.000000	0.000000	0.000000	0.000000	0.000000	0.000000	0.000000	0.000000	0.000000	0.000000	0.000000	0.000000	0.000000	0.000000	0.000000	0.000000	0.000000	0.000000	0.000000	0.000000
0.020000	-0.013476	-0.289053	0.141784	0.031799	0.009828	0.101457	-0.099464	-0.091821	0.001011	0.072902	0.036517	0.027437	0.146525	0.146525	0.863658	0.936914	0.000000	0.000000	0.000000	0.000000	0.000000	0.000000	0.000000	0.000000	0.000000	0.000000	0.000000	0.000000	0.000000	0.000000	0.000000	0.000000	0.000000	0.000000	0.000000	0.000000	0.000000	0.000000
0.025000	-0.013474	-0.289060	0.141786	0.031775	0.009804	0.101455	-0.099468	-0.091786	0.000952	0.072877	0.036482	0.027437	0.146525	0.146525	0.863984	0.940213	0.000000	0.000000	0.000000	0.000000	0.000000	0.000000	0.000000	0.000000	0.000000	0.000000	0.000000	0.000000	0.000000	0.000000	0.000000	0.000000	0.000000	0.000000	0.000000	0.000000	0.000000	0.000000
0.030000	-0.013472	-0.289065	0.141786	0.031755	0.009784	0.101454	-0.099467	-0.091748	0.000898	0.072854	0.036451	0.027437	0.146525	0.146525	0.864290	0.943484	0.000000	0.000000	0.000000	0.000000	0.000000	0.000000	0.000000	0.000000	0.000000	0.000000	0.000000	0.000000	0.000000	0.000000	0.000000	0.000000	0.000000	0.000000	0.000000	0.000000	0.000000	0.000000
0.035000	-0.013471	-0.289069	0.141784	0.031739	0.009767	0.101456	-0.099461	-0.091706	0.000850	0.072835	0.036425	0.027437	0.146525	0.146525	0.864574	0.946729	0.000000	0.000000	0.000000	0.000000	0.000000	0.000000	0.000000	0.000000	0.000000	0.000000	0.000000	0.000000	0.000000	0.000000	0.000000	0.000000	0.000000	0.000000	0.000000	0.000000	0.000000	0.000000
0.040000	-0.013471	-0.289071	0.141779	0.031726	0.009753	0.101460	-0.099450	-0.091659	0.000808	0.072817	0.036404	0.027437	0.146525	0.146525	0.864834	0.949948	0.000000	0.000000	0.000000	0.000000	0.000000	0.000000	0.000000	0.000000	0.000000	0.000000	0.000000	0.000000	0.000000	0.000000	0.000000	0.000000	0.000000	0.000000	0.000000	0.000000	0.000000	0.000000
0.045000	-0.013472	-0.289073	0.141772	0.031718	0.009743	0.101467	-0.099434	-0.091608	0.000772	0.072803	0.036389	0.027437	0.146525	0.146525	0.865069	0.953140	0.000000	0.000000	0.000000	0.000000	0.000000	0.000000	0.000000	0.000000	0.000000	0.000000	0.000000	0.000000	0.000000	0.000000	0.000000	0.000000	0.000000	0.000000	0.000000	0.000000	0.000000	0.000000
0.050000	-0.013475	-0.289073	0.141762	0.031715	0.009737	0.101477	-0.099412	-0.091552	0.000742	0.072791	0.036378	0.027437	0.146525	0.146525	0.865278	0.956306	0.000000	0.000000	0.000000	0.000000	0.000000	0.000000	0.000000	0.000000	0.000000	0.000000	0.000000	0.000000	0.000000	0.000000	0.000000	0.000000	0.000000	0.000000	0.000000	0.000000	0.000000	0.000000
0.055000	-0.013478	-0.289072	0.141750	0.031716	0.009736	0.101490	-0.099385	-0.091491	0.000719	0.072781	0.036373	0.027437	0.146525	0.146525	0.865457	0.959447	0.000000	0.000000	0.000000	0.000000	0.000000	0.000000	0.000000	0.000000	0.000000	0.000000	0.000000	0.000000	0.000000	0.000000	0.000000	0.000000	0.000000	0.000000	0.000000	0.000000	0.000000	0.000000
0.060000	-0.013483	-0.289069	0.141736	0.031722	0.009738	0.101506	-0.099351	-0.091425	0.000703	0.072775	0.036374	0.027437	0.146525	0.146525	0.865607	0.962562	0.000000	0.000000	0.000000	0.000000	0.000000	0.000000	0.000000	0.000000	0.000000	0.000000	0.000000	0.000000	0.000000	0.000000	0.000000	0.000000	0.000000	0.000000	0.000000	0.000000	0.000000	0.000000
0.065000	-0.013488	-0.289066	0.141719	0.031733	0.009744	0.101526	-0.099312	-0.091353	0.000694	0.072771	0.036380	0.027437	0.146525	0.146525	0.865725	0.965652	0.000000	0.000000	0.000000	0.000000	0.000000	0.000000	0.000000	0.000000	0.000000	0.000000	0.000000	0.000000	0.000000	0.000000	0.000000	0.000000	0.000000	0.000000	0.000000	0.000000	0.000000	0.000000
0.070000	-0.013495	-0.289061	0.141701	0.031748	0.009754	0.101550	-0.099266	-0.091275	0.000692	0.072770	0.036393	0.027437	0.146525	0.146525	0.865810	0.968717	0.000000	0.000000	0.000000	0.000000	0.000000	0.000000	0.000000	0.000000	0.000000	0.000000	0.000000	0.000000	0.000000	0.000000	0.000000	0.000000	0.000000	0.000000	0.000000	0.000000	0.000000	0.000000
0.075000	-0.013504	-0.289055	0.141680	0.031769	0.009769	0.101578	-0.099215	-0.091192	0.000698	0.072772	0.036411	0.027437	0.146525	0.146525	0.865860	0.971757	0.000000	0.000000	0.000000	0.000000	0.000000	0.000000	0.000000	0.000000	0.000000	0.000000	0.000000	0.000000	0.000000	0.000000	0.000000	0.000000	0.000000	0.000000	0.000000	0.000000	0.000000	0.000000
